# xmcd
#
# Track frame offsets: 
#        150
#        24142
#        45073
#        61137
#        69298
#        89812
#        114732
#        127825
#        141512
#        165365
#        180939
#        193839
#        215727
#        256223
#        269997
#
# Disc length: 4027 seconds
#
# Revision: 0
# Processed by: cddbd v1.4PL0 Copyright (c) Steve Scherf et al.
# Submitted via: ExactAudioCopy v0.90b4
#
DISCID=d30fb90f
DTITLE=Various Artist - Seattle's Best Blues
DYEAR=2001
DGENRE=Blues
TTITLE0=Danny Hull with Chris Cain - Money Talks
TTITLE1=The Dick Powell Band - Lose the Blues
TTITLE2=Mark DuFresne - The King, The Man, The One
TTITLE3=Too Slim and The Taildraggers - Sam's Pit
TTITLE4=Tim Turner Band - Turnin' Blue
TTITLE5=Tim Casey and The Bluescats - Everything
TTITLE6=Laurette Langille - Won't Kill Me
TTITLE7=Little Bill - Ain't No Way
TTITLE8=Nick Vigarino - Blacktop Road
TTITLE9=Brian Butler - Been There Done That
TTITLE10=Henry Cooper - Guitar Baby
TTITLE11=Smokin' Gun - Don't Touch My Girl
TTITLE12=The Fat James Band - She's Gone
TTITLE13=The Charles White Band - Don't Make Me Wait
TTITLE14=Jude Bowerman - You Brought the Sunshine Inside
EXTD=
EXTT0=
EXTT1=
EXTT2=
EXTT3=
EXTT4=
EXTT5=
EXTT6=
EXTT7=
EXTT8=
EXTT9=
EXTT10=
EXTT11=
EXTT12=
EXTT13=
EXTT14=
PLAYORDER=
